<svg width="65" height="64" viewBox="0 0 65 64" fill="none" xmlns="http://www.w3.org/2000/svg">
<rect x="0.835938" width="64" height="64" rx="32" fill="#C8F7F9"/>
<path d="M40.5087 34.6656C42.1648 34.6656 43.5072 36.008 43.5072 37.6642V38.4314C43.5072 39.6238 43.0811 40.7768 42.3057 41.6827C40.2132 44.1274 37.0303 45.3338 32.8365 45.3338C28.642 45.3338 25.4607 44.127 23.3723 41.6812C22.5992 40.776 22.1746 39.6247 22.1746 38.4343V37.6642C22.1746 36.008 23.517 34.6656 25.1731 34.6656H40.5087ZM32.8365 18.6719C36.5184 18.6719 39.5032 21.6566 39.5032 25.3385C39.5032 29.0204 36.5184 32.0052 32.8365 32.0052C29.1546 32.0052 26.1698 29.0204 26.1698 25.3385C26.1698 21.6566 29.1546 18.6719 32.8365 18.6719ZM32.8365 20.6719C30.2592 20.6719 28.1698 22.7612 28.1698 25.3385C28.1698 27.9159 30.2592 30.0052 32.8365 30.0052C35.4139 30.0052 37.5032 27.9159 37.5032 25.3385C37.5032 22.7612 35.4139 20.6719 32.8365 20.6719Z" fill="#540BE0"/>
</svg>
