<svg width="65" height="64" viewBox="0 0 65 64" fill="none" xmlns="http://www.w3.org/2000/svg">
<rect x="0.835938" width="64" height="64" rx="32" fill="#C8F7F9"/>
<path d="M30.3149 36.6656C30.3789 35.9788 30.5617 35.3011 30.8635 34.6656H22.5063C20.8503 34.6656 19.5078 36.0081 19.5078 37.6641V38.4344C19.5078 39.6247 19.9325 40.776 20.7055 41.6812C22.7939 44.1269 25.9753 45.3339 30.1698 45.3339C32.0534 45.3339 33.7331 45.0904 35.2017 44.6008L33.5817 42.9808C32.5642 43.2157 31.4281 43.3339 30.1698 43.3339C26.5187 43.3339 23.8975 42.3395 22.2264 40.3825C21.7626 39.8393 21.5078 39.1485 21.5078 38.4344V37.6641C21.5078 37.1127 21.9549 36.6656 22.5063 36.6656H30.3149ZM30.1698 18.6719C33.8517 18.6719 36.8365 21.6566 36.8365 25.3385C36.8365 29.0204 33.8517 32.0052 30.1698 32.0052C26.4879 32.0052 23.5031 29.0204 23.5031 25.3385C23.5031 21.6566 26.4879 18.6719 30.1698 18.6719ZM30.1698 20.6719C27.5924 20.6719 25.5031 22.7612 25.5031 25.3385C25.5031 27.9159 27.5924 30.0052 30.1698 30.0052C32.7471 30.0052 34.8365 27.9159 34.8365 25.3385C34.8365 22.7612 32.7471 20.6719 30.1698 20.6719ZM39.5611 46.6613C39.3051 46.6615 39.0491 46.5637 38.8539 46.3685L32.9762 40.4908C31.1711 38.6856 31.1711 35.7589 32.9762 33.9539C34.7814 32.1488 37.7081 32.1488 39.5131 33.9539L39.5611 34.0019L39.6091 33.9539C41.4142 32.1488 44.3409 32.1488 46.1461 33.9539C47.9511 35.7589 47.9511 38.6856 46.1461 40.4908L40.2683 46.3685C40.0731 46.5637 39.8171 46.6615 39.5611 46.6613Z" fill="#540BE0"/>
<path d="M43.1665 25.4987C41.9698 25.4987 40.9997 26.4688 40.9997 27.6654C40.9997 28.8619 41.9698 29.832 43.1665 29.832C44.3632 29.832 45.3332 28.8619 45.3332 27.6654C45.3332 26.4688 44.3632 25.4987 43.1665 25.4987ZM38.833 27.6654C38.833 25.2721 40.7732 23.332 43.1665 23.332C45.5596 23.332 47.4998 25.2721 47.4998 27.6654C47.4998 30.0587 45.5596 31.9987 43.1665 31.9987C40.7732 31.9987 38.833 30.0587 38.833 27.6654Z" fill="#540BE0"/>
</svg>
