<svg width="65" height="64" viewBox="0 0 65 64" fill="none" xmlns="http://www.w3.org/2000/svg">
<rect x="0.835938" width="64" height="64" rx="32" fill="#C8F7F9"/>
<path d="M24.1694 25.3333C24.1694 23.4924 25.6617 22 27.5027 22C29.3436 22 30.836 23.4924 30.836 25.3333C30.836 27.1743 29.3436 28.6667 27.5027 28.6667C25.6617 28.6667 24.1694 27.1743 24.1694 25.3333ZM27.5027 20C24.5572 20 22.1694 22.3878 22.1694 25.3333C22.1694 28.2789 24.5572 30.6667 27.5027 30.6667C30.4482 30.6667 32.836 28.2789 32.836 25.3333C32.836 22.3878 30.4482 20 27.5027 20ZM37.5027 26.6667C37.5027 25.5621 38.3982 24.6667 39.5027 24.6667C40.6072 24.6667 41.5027 25.5621 41.5027 26.6667C41.5027 27.7712 40.6072 28.6667 39.5027 28.6667C38.3982 28.6667 37.5027 27.7712 37.5027 26.6667ZM39.5027 22.6667C37.2935 22.6667 35.5027 24.4575 35.5027 26.6667C35.5027 28.8758 37.2935 30.6667 39.5027 30.6667C41.7119 30.6667 43.5027 28.8758 43.5027 26.6667C43.5027 24.4575 41.7119 22.6667 39.5027 22.6667ZM22.5027 33.3333C20.8458 33.3333 19.5027 34.6765 19.5027 36.3333V36.6681V36.6696L19.5027 36.6731L19.5028 36.6815L19.5032 36.7036C19.5035 36.7208 19.5042 36.7428 19.5055 36.7695C19.508 36.8225 19.5126 36.894 19.5213 36.9811C19.5387 37.1548 19.5725 37.3933 19.6382 37.6752C19.7693 38.2368 20.0314 38.9872 20.5585 39.7401C21.6502 41.2999 23.7317 42.6667 27.5027 42.6667C29.328 42.6667 30.7575 42.3464 31.8704 41.8391C31.6718 41.1801 31.5494 40.488 31.5136 39.7732C30.6538 40.2811 29.3862 40.6667 27.5027 40.6667C24.2736 40.6667 22.8551 39.5335 22.1969 38.5932C21.849 38.0961 21.6736 37.5965 21.5859 37.2207C21.5423 37.0337 21.5214 36.8816 21.5114 36.782C21.5064 36.7324 21.5042 36.6963 21.5033 36.6763L21.5027 36.6596V36.3333C21.5027 35.7811 21.9504 35.3333 22.5027 35.3333H32.479C32.8103 34.6977 33.218 34.1084 33.69 33.5775C33.3259 33.4204 32.9244 33.3333 32.5027 33.3333H22.5027ZM47.5027 39.3333C47.5027 43.3835 44.2195 46.6667 40.1694 46.6667C36.1192 46.6667 32.836 43.3835 32.836 39.3333C32.836 35.2832 36.1192 32 40.1694 32C44.2195 32 47.5027 35.2832 47.5027 39.3333Z" fill="#540BE0"/>
</svg>
