<svg width="65" height="64" viewBox="0 0 65 64" fill="none" xmlns="http://www.w3.org/2000/svg">
<rect x="0.835938" width="64" height="64" rx="32" fill="#C8F7F9"/>
<path d="M24.836 21.332C24.836 20.2275 25.7315 19.332 26.8361 19.332C27.9408 19.332 28.8362 20.2275 28.8362 21.332C28.8362 22.4366 27.9408 23.332 26.8361 23.332C25.7315 23.332 24.836 22.4366 24.836 21.332ZM26.8361 17.332C24.627 17.332 22.836 19.1229 22.836 21.332C22.836 23.5412 24.627 25.332 26.8361 25.332C29.0453 25.332 30.8362 23.5412 30.8362 21.332C30.8362 19.1229 29.0453 17.332 26.8361 17.332ZM19.5027 29.0225C19.5027 27.7207 20.558 26.6654 21.8598 26.6654H28.2162C27.8679 27.2675 27.6339 27.9441 27.544 28.6654H21.8598C21.6626 28.6654 21.5027 28.8253 21.5027 29.0225V29.4987C21.5027 29.6879 21.5062 30.8314 22.1516 31.9056C22.6702 32.7688 23.6808 33.7182 25.8192 33.947C25.1778 34.3735 24.6775 34.9951 24.403 35.7272C22.4048 35.2388 21.1662 34.1491 20.4372 32.9356C19.5026 31.38 19.5027 29.7794 19.5027 29.5016V29.0225ZM38.1283 28.6654C38.0383 27.9441 37.8044 27.2675 37.456 26.6654H43.8123C45.114 26.6654 46.1694 27.7207 46.1694 29.0225V29.5016C46.1694 29.7526 46.1695 31.0823 45.4811 32.4834C44.9528 32.0731 44.376 31.7227 43.7604 31.442C44.1668 30.523 44.1694 29.6607 44.1694 29.4987V29.0225C44.1694 28.8253 44.0095 28.6654 43.8123 28.6654H38.1283ZM36.061 31.6991C36.5483 31.0363 36.8362 30.2178 36.8362 29.332C36.8362 27.1229 35.0452 25.332 32.8362 25.332C30.627 25.332 28.836 27.1229 28.836 29.332C28.836 31.5412 30.627 33.332 32.8362 33.332C33.2878 33.332 33.7219 33.2572 34.1268 33.1192C34.9084 32.853 35.5812 32.3515 36.061 31.6991ZM32.8651 34.6654H27.8598C26.558 34.6654 25.5027 35.7207 25.5027 37.0224V37.5016C25.5027 37.7794 25.5026 39.38 26.4372 40.9356C27.4257 42.581 29.3506 43.9987 32.836 43.9987H32.8651C32.4618 43.3687 32.1378 42.6831 31.907 41.9559C29.7083 41.7439 28.6773 40.7806 28.1516 39.9056C27.5062 38.8314 27.5027 37.6879 27.5027 37.4987V37.0224C27.5027 36.8252 27.6626 36.6654 27.8598 36.6654H31.9207C32.1504 35.954 32.4698 35.283 32.8651 34.6654ZM38.8362 19.332C37.7315 19.332 36.836 20.2275 36.836 21.332C36.836 22.4366 37.7315 23.332 38.8362 23.332C39.9408 23.332 40.8362 22.4366 40.8362 21.332C40.8362 20.2275 39.9408 19.332 38.8362 19.332ZM34.836 21.332C34.836 19.1229 36.627 17.332 38.8362 17.332C41.0452 17.332 42.8362 19.1229 42.8362 21.332C42.8362 23.5412 41.0452 25.332 38.8362 25.332C36.627 25.332 34.836 23.5412 34.836 21.332ZM30.836 29.332C30.836 28.2275 31.7315 27.332 32.8362 27.332C33.9408 27.332 34.8362 28.2275 34.8362 29.332C34.8362 30.4366 33.9408 31.332 32.8362 31.332C31.7315 31.332 30.836 30.4366 30.836 29.332ZM40.1694 31.9987C44.2195 31.9987 47.5027 35.2819 47.5027 39.332C47.5027 43.3822 44.2195 46.6654 40.1694 46.6654C36.1192 46.6654 32.836 43.3822 32.836 39.332C32.836 35.2819 36.1192 31.9987 40.1694 31.9987ZM40.8375 43.3367L40.8368 39.9987H44.1648C44.5327 39.9987 44.8308 39.7003 44.8308 39.332C44.8308 38.9639 44.5327 38.6654 44.1648 38.6654H40.8367L40.836 35.3311C40.836 34.9628 40.5375 34.6644 40.1694 34.6644C39.8012 34.6644 39.5027 34.9628 39.5027 35.3311L39.5034 38.6654H36.1635C35.7956 38.6654 35.4975 38.9639 35.4975 39.332C35.4975 39.7003 35.7956 39.9987 36.1635 39.9987H39.5035L39.5042 43.3367C39.5042 43.705 39.8027 44.0034 40.1708 44.0034C40.5391 44.0034 40.8375 43.705 40.8375 43.3367Z" fill="#540BE0"/>
</svg>
