<svg width="18" height="19" viewBox="0 0 18 19" fill="none" xmlns="http://www.w3.org/2000/svg">
<path d="M8.99645 0.5C9.38695 0.5 9.70978 0.790079 9.7609 1.16662L9.76799 1.27131L9.76923 8.7289H17.2287C17.6546 8.7289 18 9.07431 18 9.50036C18 9.89092 17.7098 10.2137 17.3334 10.2648L17.2287 10.2718H9.76923L9.77128 17.7283C9.77139 18.1544 9.42614 18.5 9.00015 18.5C8.60965 18.5 8.28682 18.2099 8.23571 17.8334L8.22861 17.7286L8.22655 10.2718H0.771336C0.345332 10.2718 0 9.92641 0 9.50036C0 9.1098 0.290177 8.78702 0.666671 8.7359L0.771336 8.7289H8.22655L8.22532 1.27161C8.22522 0.845552 8.57047 0.5 8.99645 0.5Z" fill="#240151"/>
</svg>
