<svg width="15" height="21" viewBox="0 0 15 21" fill="none" xmlns="http://www.w3.org/2000/svg">
<path d="M14.2498 19.0009C14.664 19.0008 15 19.3365 15 19.7507C15 20.1649 14.6644 20.5008 14.2502 20.5009L1.25022 20.5047C0.836 20.5048 0.5 20.1691 0.5 19.7549C0.5 19.3407 0.83557 19.0048 1.24978 19.0047L14.2498 19.0009ZM7.6482 0.512709L7.75 0.505859C8.1297 0.505859 8.4435 0.788009 8.4932 1.15409L8.5 1.25586L8.499 14.9409L12.2208 11.2205C12.4871 10.9543 12.9038 10.9301 13.1974 11.148L13.2815 11.2206C13.5477 11.4869 13.5719 11.9036 13.354 12.1972L13.2814 12.2813L8.2837 17.2779C8.0176 17.544 7.6012 17.5683 7.3076 17.3507L7.2235 17.2782L2.22003 12.2816C1.92694 11.9889 1.92661 11.514 2.21931 11.2209C2.48539 10.9545 2.90204 10.93 3.1958 11.1477L3.27997 11.2202L6.999 14.9339L7 1.25586C7 0.876159 7.2822 0.562369 7.6482 0.512709Z" fill="#540BE0"/>
</svg>
