<svg width="18" height="16" viewBox="0 0 18 16" fill="none" xmlns="http://www.w3.org/2000/svg">
<path fill-rule="evenodd" clip-rule="evenodd" d="M15.2444 8.68187C15.9705 10.009 16.4001 11.9192 16.4001 14.6817H17.5137C17.5137 11.8211 17.0717 9.70169 16.2213 8.14734C15.3603 6.5737 14.1053 5.62462 12.5846 5.06903C11.085 4.52114 9.32982 4.35662 7.44874 4.32137C6.39041 4.30153 5.24795 4.32334 4.07153 4.3458C3.182 4.36279 2.27306 4.38014 1.3664 4.38014V5.49374C2.32798 5.49374 3.24804 5.47583 4.13531 5.45855C5.28122 5.43624 6.37245 5.415 7.42787 5.43478C9.27797 5.46945 10.8817 5.63248 12.2025 6.11501C13.5021 6.58983 14.5288 7.37405 15.2444 8.68187Z" fill="#240151" stroke="#240151" stroke-width="0.5" stroke-miterlimit="10"/>
<path fill-rule="evenodd" clip-rule="evenodd" d="M6.34921 0.966412C6.1548 0.728146 5.80405 0.692591 5.56579 0.886998L0.486296 5.03147L5.56579 9.17593C5.80405 9.37034 6.1548 9.33478 6.34921 9.09652C6.54361 8.85825 6.50806 8.5075 6.26979 8.31309L2.2478 5.03147L6.26979 1.74984C6.50806 1.55543 6.54361 1.20468 6.34921 0.966412Z" fill="#240151" stroke="#240151" stroke-width="0.5" stroke-miterlimit="10" stroke-linecap="round"/>
<path fill-rule="evenodd" clip-rule="evenodd" d="M8.60498 13.0111C8.60498 11.7818 9.60285 10.7839 10.8322 10.7839C12.0615 10.7839 13.0594 11.7818 13.0594 13.0111C13.0594 14.2405 12.0615 15.2384 10.8322 15.2384C9.60285 15.2384 8.60498 14.2405 8.60498 13.0111ZM10.8322 11.8975C10.2179 11.8975 9.71859 12.3968 9.71859 13.0111C9.71859 13.6255 10.2179 14.1248 10.8322 14.1248C11.4465 14.1248 11.9458 13.6255 11.9458 13.0111C11.9458 12.3968 11.4465 11.8975 10.8322 11.8975Z" fill="#240151" stroke="#240151" stroke-width="0.5" stroke-linecap="round" stroke-linejoin="round"/>
</svg>
