<svg width="21" height="24" viewBox="0 0 21 24" fill="none" xmlns="http://www.w3.org/2000/svg">
<path d="M8.25328 15.2488C8.44005 14.6707 8.69951 14.1254 9.02083 13.6234H2.77004C1.42423 13.6234 0.333252 14.7144 0.333252 16.0602V16.6862C0.333252 17.6536 0.67838 18.5893 1.30658 19.325C2.83655 21.1166 5.08832 22.0902 8.01441 22.2647L8.50288 20.6602C5.7925 20.574 3.82388 19.7699 2.54259 18.2695C2.16567 17.828 1.95859 17.2666 1.95859 16.6862V16.0602C1.95859 15.612 2.32188 15.2488 2.77004 15.2488H8.25328ZM8.99786 0.625648C11.99 0.625648 14.4156 3.05131 14.4156 6.04351C14.4156 9.03572 11.99 11.4614 8.99786 11.4614C6.0057 11.4614 3.58008 9.03572 3.58008 6.04351C3.58008 3.05131 6.0057 0.625648 8.99786 0.625648ZM8.99786 2.25101C6.90334 2.25101 5.20541 3.94897 5.20541 6.04351C5.20541 8.13806 6.90334 9.83604 8.99786 9.83604C11.0924 9.83604 12.7903 8.13806 12.7903 6.04351C12.7903 3.94897 11.0924 2.25101 8.99786 2.25101ZM20.9166 17.416C20.9166 20.7074 18.2484 23.3756 14.9571 23.3756C13.9087 23.3756 12.9236 23.105 12.0679 22.6298L9.69856 23.3507C9.28386 23.4769 8.89624 23.0893 9.02256 22.6746L9.74374 20.3059C9.26826 19.45 8.99743 18.4646 8.99743 17.416C8.99743 14.1245 11.6657 11.4564 14.9571 11.4564C18.2484 11.4564 20.9166 14.1245 20.9166 17.416ZM12.79 15.7907C12.4907 15.7907 12.2482 16.0332 12.2482 16.3325C12.2482 16.6317 12.4907 16.8742 12.79 16.8742H17.1242C17.4234 16.8742 17.6659 16.6317 17.6659 16.3325C17.6659 16.0332 17.4234 15.7907 17.1242 15.7907H12.79ZM12.2482 18.4996C12.2482 18.7988 12.4907 19.0413 12.79 19.0413H14.9571C15.2563 19.0413 15.4988 18.7988 15.4988 18.4996C15.4988 18.2003 15.2563 17.9578 14.9571 17.9578H12.79C12.4907 17.9578 12.2482 18.2003 12.2482 18.4996Z" fill="#9F9F9F"/>
</svg>
