<svg width="20" height="21" viewBox="0 0 20 21" fill="none" xmlns="http://www.w3.org/2000/svg">
<path d="M8 4.00003H12C12 2.89546 11.1046 2.00003 10 2.00003C8.8954 2.00003 8 2.89546 8 4.00003ZM6.5 4.00003C6.5 2.06703 8.067 0.500031 10 0.500031C11.933 0.500031 13.5 2.06703 13.5 4.00003H19.25C19.6642 4.00003 20 4.33582 20 4.75003C20 5.16424 19.6642 5.50003 19.25 5.50003H17.9309L16.7589 17.6112C16.5729 19.5334 14.9575 21 13.0263 21H6.97369C5.04254 21 3.42715 19.5334 3.24113 17.6112L2.06908 5.50003H0.75C0.33579 5.50003 0 5.16424 0 4.75003C0 4.33582 0.33579 4.00003 0.75 4.00003H6.5ZM8.5 8.75003C8.5 8.33582 8.1642 8.00003 7.75 8.00003C7.33579 8.00003 7 8.33582 7 8.75003V16.25C7 16.6642 7.33579 17 7.75 17C8.1642 17 8.5 16.6642 8.5 16.25V8.75003ZM12.25 8.00003C12.6642 8.00003 13 8.33582 13 8.75003V16.25C13 16.6642 12.6642 17 12.25 17C11.8358 17 11.5 16.6642 11.5 16.25V8.75003C11.5 8.33582 11.8358 8.00003 12.25 8.00003ZM4.73416 17.4667C4.84577 18.62 5.815 19.5 6.97369 19.5H13.0263C14.185 19.5 15.1542 18.62 15.2658 17.4667L16.4239 5.50003H3.57608L4.73416 17.4667Z" fill="#240151"/>
</svg>
