<svg width="15" height="20" viewBox="0 0 15 20" fill="none" xmlns="http://www.w3.org/2000/svg">
<path d="M14.0857 18.5029C14.4999 18.5028 14.8359 18.8385 14.8359 19.2527C14.8359 19.6669 14.5003 20.0028 14.0861 20.0029L1.08616 20.0067C0.671937 20.0068 0.335938 19.6711 0.335938 19.2569C0.335938 18.8427 0.671508 18.5068 1.08572 18.5067L14.0857 18.5029ZM7.48414 0.0146625L7.58594 0.0078125C7.96564 0.0078125 8.27944 0.289962 8.32914 0.656042L8.33594 0.757812L8.33494 14.4429L12.0567 10.7225C12.323 10.4563 12.7397 10.4321 13.0333 10.65L13.1174 10.7226C13.3836 10.9889 13.4078 11.4056 13.1899 11.6992L13.1173 11.7833L8.11964 16.7799C7.85354 17.046 7.43714 17.0703 7.14354 16.8527L7.05944 16.7802L2.05597 11.7836C1.76288 11.4909 1.76255 11.016 2.05525 10.7229C2.32133 10.4565 2.73798 10.432 3.03174 10.6497L3.11591 10.7222L6.83494 14.4359L6.83594 0.757812C6.83594 0.378112 7.11814 0.0643225 7.48414 0.0146625Z" fill="white"/>
</svg>
