<svg width="21" height="24" viewBox="0 0 21 24" fill="none" xmlns="http://www.w3.org/2000/svg">
<path d="M5.49992 0.625595C4.3033 0.625595 3.33325 1.59564 3.33325 2.79226V10.9153C3.84694 10.701 4.39144 10.5459 4.95825 10.4584V2.79226C4.95825 2.49311 5.20077 2.2506 5.49992 2.2506H11.9999V7.1256C11.9999 8.32221 12.9699 9.29226 14.1666 9.29226H19.0416V20.1256C19.0416 20.4247 18.799 20.6673 18.4999 20.6673H12.29C11.9789 21.2642 11.5848 21.8109 11.1229 22.2923H18.4999C19.6966 22.2923 20.6666 21.3222 20.6666 20.1256V9.10568C20.6666 8.53104 20.4383 7.97994 20.032 7.57361L13.7185 1.2602C13.3123 0.853864 12.7612 0.625595 12.1865 0.625595H5.49992ZM17.8275 7.66726H14.1666C13.8675 7.66726 13.6249 7.42475 13.6249 7.1256V3.46464L17.8275 7.66726ZM11.9999 17.4173C11.9999 20.708 9.33229 23.3756 6.04159 23.3756C2.75088 23.3756 0.083252 20.708 0.083252 17.4173C0.083252 14.1265 2.75088 11.4589 6.04159 11.4589C9.33229 11.4589 11.9999 14.1265 11.9999 17.4173ZM6.58325 14.1673C6.58325 13.8682 6.34074 13.6256 6.04159 13.6256C5.74243 13.6256 5.49992 13.8682 5.49992 14.1673V19.3596L3.71626 17.5759C3.50473 17.3644 3.16177 17.3644 2.95024 17.5759C2.7387 17.7874 2.7387 18.1304 2.95024 18.342L5.65857 21.0503C5.8701 21.2618 6.21307 21.2618 6.4246 21.0503L9.13293 18.342C9.34447 18.1304 9.34447 17.7874 9.13293 17.5759C8.9214 17.3644 8.57844 17.3644 8.36691 17.5759L6.58325 19.3596V14.1673Z" fill="#9F9F9F"/>
</svg>
