<svg width="20" height="21" viewBox="0 0 20 21" fill="none" xmlns="http://www.w3.org/2000/svg">
<path d="M18.9519 1.54807C17.5543 0.150548 15.2885 0.150608 13.8911 1.54822L1.94103 13.4997C1.5347 13.9061 1.2491 14.4172 1.116 14.9762L0.0204088 19.5777C-0.0399112 19.8311 0.0355188 20.0976 0.219679 20.2817C0.403849 20.4659 0.670369 20.5413 0.923729 20.481L5.52498 19.3855C6.08418 19.2523 6.59546 18.9666 7.00191 18.5601L18.952 6.60858C20.3493 5.21109 20.3493 2.94547 18.9519 1.54807ZM14.9518 2.60881C15.7634 1.79706 17.0795 1.79702 17.8912 2.60873C18.7028 3.42037 18.7029 4.73629 17.8913 5.54798L17 6.43943L14.0606 3.50009L14.9518 2.60881ZM13 4.56081L15.9394 7.50015L5.94119 17.4995C5.73104 17.7097 5.46668 17.8574 5.17755 17.9263L1.76191 18.7395L2.57521 15.3237C2.64402 15.0346 2.79168 14.7704 3.00175 14.5603L13 4.56081Z" fill="#240151"/>
</svg>
