<svg width="19" height="18" viewBox="0 0 19 18" fill="none" xmlns="http://www.w3.org/2000/svg">
<path d="M16.2139 2.28607C15.1657 1.23793 13.4664 1.23798 12.4183 2.28619L3.45577 11.2498C3.15102 11.5546 2.93682 11.9379 2.837 12.3571L2.01531 15.8083C1.97007 15.9983 2.02664 16.1982 2.16476 16.3363C2.30289 16.4744 2.50278 16.531 2.6928 16.4857L6.14373 15.6641C6.56313 15.5642 6.94659 15.3499 7.25143 15.0451L8.11482 14.1816C8.0396 13.8414 8 13.4878 8 13.125C8 12.9769 8.0066 12.8305 8.0195 12.6858L6.45589 14.2496C6.29828 14.4073 6.10001 14.518 5.88316 14.5697L3.32143 15.1796L3.93141 12.6178C3.98301 12.4009 4.09376 12.2028 4.25131 12.0452L11.75 4.54563L13.9545 6.75013L12.4353 8.26957C12.5801 8.2566 12.7268 8.25 12.875 8.25C13.2376 8.25 13.591 8.2896 13.9311 8.36467L16.214 6.08146C17.262 5.03334 17.262 3.33412 16.2139 2.28607ZM13.2138 3.08163C13.8225 2.47282 14.8096 2.47279 15.4184 3.08157C16.0271 3.6903 16.0272 4.67724 15.4185 5.28601L14.75 5.95459L12.5454 3.75009L13.2138 3.08163Z" fill="#540BE0"/>
<path d="M11.501 14.4216C12.8801 14.4216 14 13.3017 14 11.9225C14 10.5434 12.8801 9.42352 11.501 9.42352C10.1219 9.42352 9.00195 10.5434 9.00195 11.9225C9.00195 13.3017 10.1219 14.4216 11.501 14.4216Z" stroke="#540BE0" stroke-width="1.2" stroke-linecap="round" stroke-linejoin="round"/>
</svg>
