<svg width="20" height="15" viewBox="0 0 20 15" fill="none" xmlns="http://www.w3.org/2000/svg">
<path d="M19.2498 0C19.6295 0 19.9433 0.28215 19.993 0.64823L19.9998 0.75V13.7541C19.9998 14.1683 19.664 14.5041 19.2498 14.5041C18.8701 14.5041 18.5563 14.2219 18.5066 13.8558L18.4998 13.7541V0.75C18.4998 0.33579 18.8356 0 19.2498 0ZM10.6469 1.80373L10.7195 1.71961C10.9858 1.45338 11.4025 1.42921 11.6961 1.6471L11.7802 1.71972L16.7768 6.7174C17.0429 6.9835 17.0672 7.3999 16.8496 7.6935L16.7771 7.7776L11.7805 12.7811C11.4878 13.0742 11.0129 13.0745 10.7198 12.7818C10.4534 12.5157 10.4289 12.0991 10.6465 11.8053L10.7191 11.7211L14.43 8.004L0.75 8.0049C0.3703 8.0049 0.05651 7.7228 0.00685 7.3567L0 7.2549C0 6.8753 0.28215 6.5615 0.64823 6.5118L0.75 6.5049L14.443 6.504L10.7194 2.78028C10.4532 2.51398 10.429 2.09732 10.6469 1.80373Z" fill="white"/>
</svg>
