<svg width="21" height="20" viewBox="0 0 21 20" fill="none" xmlns="http://www.w3.org/2000/svg">
<path d="M10.836 -0.00195312C16.3597 -0.00195312 20.8375 4.47589 20.8375 9.9996C20.8375 15.5233 16.3597 20.0011 10.836 20.0011C5.31231 20.0011 0.834473 15.5233 0.834473 9.9996C0.834473 4.47589 5.31231 -0.00195312 10.836 -0.00195312ZM10.836 1.49805C6.14074 1.49805 2.33447 5.30432 2.33447 9.9996C2.33447 14.6949 6.14074 18.5011 10.836 18.5011C15.5313 18.5011 19.3375 14.6949 19.3375 9.9996C19.3375 5.30432 15.5313 1.49805 10.836 1.49805ZM10.8323 8.4986C11.212 8.4984 11.526 8.7803 11.5759 9.1464L11.5828 9.2481L11.5864 14.7497C11.5867 15.1639 11.2511 15.5 10.8369 15.5002C10.4572 15.5005 10.1432 15.2185 10.0933 14.8525L10.0864 14.7507L10.0828 9.2491C10.0826 8.8349 10.4181 8.4989 10.8323 8.4986ZM10.8364 5.00086C11.388 5.00086 11.8351 5.44798 11.8351 5.99953C11.8351 6.55107 11.388 6.99819 10.8364 6.99819C10.2849 6.99819 9.83783 6.55107 9.83783 5.99953C9.83783 5.44798 10.2849 5.00086 10.8364 5.00086Z" fill="#9F9F9F"/>
</svg>
