<svg width="112" height="12" viewBox="0 0 112 12" fill="none" xmlns="http://www.w3.org/2000/svg">
<path d="M11.8413 1.24556L10.5344 2.98199H6.58873V10.7925H4.89124V2.98199H0L1.30693 1.24556H11.8413ZM33.7951 6.9257L35.102 5.19042H27.1436V2.98199H33.9996L35.3065 1.24556H25.4461V10.8706H33.9996L35.3065 9.13413H27.1436V6.9257H33.7951ZM23.3159 9.74624L21.2278 7.71697C22.3833 7.19213 23.1958 5.9725 23.1958 4.55534C23.1958 2.66043 21.7428 1.11923 19.9577 1.11923L13.5172 1.23522L12.2762 2.95672H19.9577C20.7886 2.95672 21.4648 3.67334 21.4648 4.55534C21.4648 5.43733 20.7886 6.1551 19.9577 6.1551H12.5186V10.7442H14.2712V7.99259H18.9483L21.9191 10.8809H24.5438L23.3159 9.74624ZM44.6573 10.866C45.3648 10.866 46.0594 10.5536 46.5647 10.0081C47.0699 9.46258 47.3425 8.74711 47.3296 7.99489C47.322 7.51714 47.2019 7.04743 46.9823 6.63514C46.794 6.28258 46.5322 5.9725 46.2239 5.73707C45.816 5.42699 45.3172 5.26277 44.7795 5.26277H38.8551C38.7653 5.26277 38.6744 5.24899 38.5868 5.22257C38.1378 5.08591 37.8349 4.6208 37.8662 4.11664C37.9009 3.55735 38.3509 3.11865 38.8919 3.11865H46.199L47.2755 1.36844H38.8551C37.4367 1.36844 36.264 2.61334 36.2412 4.1419C36.2348 4.54385 36.3083 4.93317 36.4609 5.30067C36.5463 5.50968 36.6599 5.71295 36.7973 5.9013C37.2864 6.57083 38.074 6.97049 38.9038 6.97049H44.68C44.772 6.97049 44.865 6.98427 44.957 7.01068C45.3778 7.13471 45.6786 7.51944 45.7056 7.96847C45.7251 8.27281 45.6277 8.56106 45.4341 8.78156C45.2448 8.99632 44.9905 9.11461 44.7168 9.11461H36.9499L35.5954 10.8648H44.6584L44.6573 10.866Z" fill="#240151"/>
<path d="M53.5133 4.38217H58.0472V5.46497H53.5133V4.38217ZM53.6266 8.34395H58.7651V9.45223H52.3672V0.535032H58.5888V1.64331H53.6266V8.34395Z" fill="#240151"/>
<path d="M68.9781 2.63694C69.5154 2.63694 69.9898 2.7431 70.4012 2.95541C70.8126 3.16773 71.1317 3.49045 71.3584 3.92357C71.5935 4.35669 71.711 4.90446 71.711 5.56688V9.45223H70.502V5.70701C70.502 5.05308 70.3508 4.56051 70.0486 4.2293C69.7463 3.89809 69.3223 3.73248 68.7765 3.73248C68.3735 3.73248 68.0209 3.81741 67.7186 3.98726C67.4164 4.15711 67.1813 4.40764 67.0133 4.73885C66.8538 5.07006 66.7741 5.48195 66.7741 5.97452V9.45223H65.565V5.70701C65.565 5.05308 65.4139 4.56051 65.1116 4.2293C64.8177 3.89809 64.3937 3.73248 63.8396 3.73248C63.445 3.73248 63.0965 3.81741 62.7943 3.98726C62.492 4.15711 62.2569 4.40764 62.089 4.73885C61.9211 5.07006 61.8371 5.48195 61.8371 5.97452V9.45223H60.628V2.70064H61.7867V4.49682L61.5978 4.03822C61.8077 3.5966 62.131 3.25265 62.5676 3.00637C63.0042 2.76009 63.5121 2.63694 64.0915 2.63694C64.7296 2.63694 65.2795 2.7983 65.7413 3.12102C66.2031 3.43524 66.5054 3.91507 66.6481 4.56051L66.1569 4.35669C66.3584 3.83864 66.7111 3.42251 67.2149 3.10828C67.7186 2.79406 68.3064 2.63694 68.9781 2.63694Z" fill="#240151"/>
<path d="M77.4747 9.52866C76.9205 9.52866 76.4126 9.40127 75.9508 9.1465C75.4974 8.88323 75.1321 8.49682 74.8551 7.98726C74.5864 7.47771 74.452 6.84076 74.452 6.07643C74.452 5.3121 74.5822 4.67516 74.8425 4.16561C75.1111 3.65605 75.4722 3.27389 75.9256 3.01911C76.3874 2.76433 76.9037 2.63694 77.4747 2.63694C78.1296 2.63694 78.7089 2.78132 79.2127 3.07006C79.7164 3.35881 80.1153 3.76221 80.4091 4.28025C80.703 4.78981 80.8499 5.38854 80.8499 6.07643C80.8499 6.76433 80.703 7.3673 80.4091 7.88535C80.1153 8.4034 79.7164 8.80679 79.2127 9.09554C78.7089 9.38429 78.1296 9.52866 77.4747 9.52866ZM73.9357 11.9236V2.70064H75.0944V4.52229L75.0188 6.08917L75.1447 7.65605V11.9236H73.9357ZM77.3739 8.4586C77.8021 8.4586 78.1841 8.36094 78.52 8.16561C78.8642 7.97028 79.1329 7.69427 79.326 7.33758C79.5275 6.9724 79.6283 6.55202 79.6283 6.07643C79.6283 5.59236 79.5275 5.17622 79.326 4.82803C79.1329 4.47134 78.8642 4.19533 78.52 4C78.1841 3.80467 77.8021 3.70701 77.3739 3.70701C76.9541 3.70701 76.5721 3.80467 76.2278 4C75.892 4.19533 75.6233 4.47134 75.4218 4.82803C75.2287 5.17622 75.1321 5.59236 75.1321 6.07643C75.1321 6.55202 75.2287 6.9724 75.4218 7.33758C75.6233 7.69427 75.892 7.97028 76.2278 8.16561C76.5721 8.36094 76.9541 8.4586 77.3739 8.4586Z" fill="#240151"/>
<path d="M82.5204 9.45223V0H83.7295V9.45223H82.5204Z" fill="#240151"/>
<path d="M88.8969 9.52866C88.2252 9.52866 87.6291 9.38004 87.1085 9.0828C86.5879 8.78556 86.1765 8.37792 85.8743 7.85987C85.572 7.33333 85.4209 6.73885 85.4209 6.07643C85.4209 5.40552 85.572 4.81104 85.8743 4.29299C86.1765 3.77495 86.5879 3.37155 87.1085 3.0828C87.6291 2.78556 88.2252 2.63694 88.8969 2.63694C89.5602 2.63694 90.1521 2.78556 90.6727 3.0828C91.2016 3.37155 91.6131 3.77495 91.9069 4.29299C92.2092 4.80255 92.3603 5.39703 92.3603 6.07643C92.3603 6.74735 92.2092 7.34183 91.9069 7.85987C91.6131 8.37792 91.2016 8.78556 90.6727 9.0828C90.1521 9.38004 89.5602 9.52866 88.8969 9.52866ZM88.8969 8.4586C89.3251 8.4586 89.7071 8.36094 90.043 8.16561C90.3872 7.97028 90.6559 7.69427 90.849 7.33758C91.0421 6.9724 91.1387 6.55202 91.1387 6.07643C91.1387 5.59236 91.0421 5.17622 90.849 4.82803C90.6559 4.47134 90.3872 4.19533 90.043 4C89.7071 3.80467 89.3251 3.70701 88.8969 3.70701C88.4687 3.70701 88.0867 3.80467 87.7508 4C87.415 4.19533 87.1463 4.47134 86.9448 4.82803C86.7433 5.17622 86.6425 5.59236 86.6425 6.07643C86.6425 6.55202 86.7433 6.9724 86.9448 7.33758C87.1463 7.69427 87.415 7.97028 87.7508 8.16561C88.0867 8.36094 88.4687 8.4586 88.8969 8.4586Z" fill="#240151"/>
<path d="M94.1376 12C93.8185 12 93.5079 11.9448 93.2056 11.8344C92.9033 11.7325 92.6431 11.5796 92.4248 11.3758L92.9411 10.4586C93.1091 10.62 93.2938 10.7431 93.4953 10.828C93.6968 10.913 93.9109 10.9554 94.1376 10.9554C94.4315 10.9554 94.6749 10.879 94.8681 10.7261C95.0612 10.5732 95.2417 10.3015 95.4096 9.91083L95.8252 8.98089L95.9512 8.82803L98.5708 2.70064H99.7546L96.5179 10.1274C96.3248 10.603 96.1065 10.9766 95.863 11.2484C95.6279 11.5202 95.3676 11.7113 95.0822 11.8217C94.7967 11.9406 94.4818 12 94.1376 12ZM95.7245 9.66879L92.6767 2.70064H93.9361L96.5305 8.71338L95.7245 9.66879Z" fill="#240151"/>
<path d="M103.671 9.52866C102.957 9.52866 102.327 9.38004 101.782 9.0828C101.244 8.78556 100.824 8.37792 100.522 7.85987C100.228 7.34183 100.081 6.74735 100.081 6.07643C100.081 5.40552 100.224 4.81104 100.51 4.29299C100.803 3.77495 101.202 3.37155 101.706 3.0828C102.218 2.78556 102.793 2.63694 103.431 2.63694C104.078 2.63694 104.649 2.78132 105.144 3.07006C105.64 3.35881 106.026 3.76645 106.303 4.29299C106.588 4.81104 106.731 5.41826 106.731 6.11465C106.731 6.16561 106.727 6.22505 106.719 6.29299C106.719 6.36093 106.714 6.42463 106.706 6.48408H101.026V5.6051H106.076L105.585 5.91083C105.593 5.47771 105.505 5.0913 105.321 4.75159C105.136 4.41189 104.88 4.14862 104.552 3.96178C104.233 3.76645 103.86 3.66879 103.431 3.66879C103.012 3.66879 102.638 3.76645 102.311 3.96178C101.983 4.14862 101.727 4.41614 101.542 4.76433C101.358 5.10403 101.265 5.49469 101.265 5.93631V6.14013C101.265 6.59023 101.366 6.99363 101.568 7.35032C101.777 7.69851 102.067 7.97028 102.437 8.16561C102.806 8.36094 103.23 8.4586 103.709 8.4586C104.103 8.4586 104.46 8.39066 104.779 8.25478C105.107 8.1189 105.392 7.91507 105.635 7.64331L106.303 8.43312C106.001 8.78981 105.623 9.06157 105.169 9.24841C104.724 9.43524 104.225 9.52866 103.671 9.52866Z" fill="#240151"/>
<path d="M108.41 9.45223V2.70064H109.569V4.53503L109.455 4.07643C109.64 3.60934 109.951 3.25265 110.387 3.00637C110.824 2.76009 111.361 2.63694 111.999 2.63694V3.82166C111.949 3.81316 111.899 3.80892 111.848 3.80892C111.806 3.80892 111.764 3.80892 111.722 3.80892C111.076 3.80892 110.564 4.00425 110.186 4.39491C109.808 4.78556 109.619 5.35032 109.619 6.08917V9.45223H108.41Z" fill="#240151"/>
</svg>
