<svg width="22" height="17" viewBox="0 0 22 17" fill="none" xmlns="http://www.w3.org/2000/svg">
<path d="M0.981956 0.875C1.3933 0.875 1.73318 1.18079 1.78692 1.57739L1.79432 1.68765L1.79175 15.7754C1.79166 16.2241 1.42783 16.5878 0.979096 16.5878C0.567766 16.5878 0.22787 16.2819 0.174147 15.8853L0.166748 15.7751L0.169316 1.68735C0.169392 1.23862 0.533229 0.875 0.981956 0.875ZM14.9511 2.82904L15.0298 2.73791C15.3182 2.4495 15.7697 2.42331 16.0877 2.65936L16.1788 2.73803L21.5918 8.15218C21.8801 8.44046 21.9064 8.89156 21.6707 9.20963L21.5922 9.30073L16.1792 14.7212C15.8621 15.0387 15.3476 15.039 15.0301 14.7219C14.7415 14.4337 14.7149 13.9824 14.9507 13.6641L15.0293 13.5729L19.0492 9.546L4.23244 9.54698C3.82111 9.54698 3.48116 9.24137 3.42736 8.84476L3.41994 8.73448C3.41994 8.32324 3.72562 7.98329 4.12219 7.92945L4.23244 7.92198L19.0633 7.921L15.0296 3.88697C14.7413 3.59848 14.715 3.1471 14.9511 2.82904Z" fill="#9F9F9F"/>
</svg>
