<svg width="22" height="22" viewBox="0 0 22 22" fill="none" xmlns="http://www.w3.org/2000/svg">
<path d="M6.1251 1.88239C5.22757 1.88239 4.50002 2.60995 4.50002 3.50739C4.50002 4.40482 5.22757 5.13238 6.1251 5.13238C7.02263 5.13238 7.75017 4.40482 7.75017 3.50739C7.75017 2.60995 7.02263 1.88239 6.1251 1.88239ZM2.87502 3.50739C2.87502 1.71243 4.33015 0.257385 6.1251 0.257385C7.92004 0.257385 9.37513 1.71243 9.37513 3.50739C9.37513 5.30234 7.92004 6.75738 6.1251 6.75738C4.33015 6.75738 2.87502 5.30234 2.87502 3.50739ZM2.08185 7.84072C1.02413 7.84072 0.166687 8.69817 0.166687 9.75583V10.1452C0.166676 10.3708 0.166622 11.6714 0.925952 12.9353C1.51833 13.9213 2.52463 14.8067 4.14823 15.2035C4.37121 14.6086 4.77775 14.1036 5.29889 13.757C3.56137 13.5711 2.74031 12.7998 2.31889 12.0984C1.7945 11.2256 1.79169 10.2965 1.79169 10.1428V9.75583C1.79169 9.59561 1.9216 9.46572 2.08185 9.46572H6.70022C6.7733 8.87967 6.9634 8.32995 7.24642 7.84072H2.08185ZM14.7538 7.84072C15.0368 8.32995 15.2269 8.87967 15.3 9.46572H19.9182C20.0785 9.46572 20.2084 9.59561 20.2084 9.75583V10.1428C20.2084 10.2965 20.2055 11.2256 19.6812 12.0984C19.2598 12.7998 18.4386 13.5711 16.7012 13.757C17.2223 14.1036 17.6288 14.6086 17.8518 15.2035C19.4754 14.8067 20.4817 13.9213 21.074 12.9353C21.8335 11.6714 21.8334 10.3708 21.8334 10.1452V9.75583C21.8334 8.69817 20.9759 7.84072 19.9182 7.84072H14.7538ZM14.25 3.50739C14.25 2.60995 14.9776 1.88239 15.8751 1.88239C16.7727 1.88239 17.5001 2.60995 17.5001 3.50739C17.5001 4.40482 16.7727 5.13238 15.8751 5.13238C14.9776 5.13238 14.25 4.40482 14.25 3.50739ZM15.8751 0.257385C14.0802 0.257385 12.625 1.71243 12.625 3.50739C12.625 5.30234 14.0802 6.75738 15.8751 6.75738C17.67 6.75738 19.1251 5.30234 19.1251 3.50739C19.1251 1.71243 17.67 0.257385 15.8751 0.257385ZM11.0001 8.38238C10.1026 8.38238 9.37502 9.10995 9.37502 10.0074C9.37502 10.9048 10.1026 11.6324 11.0001 11.6324C11.8977 11.6324 12.6251 10.9048 12.6251 10.0074C12.6251 9.10995 11.8977 8.38238 11.0001 8.38238ZM7.75002 10.0074C7.75002 8.21243 9.20515 6.75738 11.0001 6.75738C12.795 6.75738 14.2501 8.21243 14.2501 10.0074C14.2501 11.8024 12.795 13.2574 11.0001 13.2574C9.20515 13.2574 7.75002 11.8024 7.75002 10.0074ZM5.04169 16.2558C5.04169 15.1982 5.89913 14.3407 6.95685 14.3407H15.0432C16.1009 14.3407 16.9584 15.1982 16.9584 16.2558V16.6452C16.9584 16.8708 16.9585 18.1714 16.199 19.4353C15.396 20.7721 13.8319 21.924 11 21.924C8.16815 21.924 6.60411 20.7721 5.80094 19.4353C5.04162 18.1714 5.04168 16.8708 5.04169 16.6452V16.2558ZM6.95685 15.9657C6.7966 15.9657 6.66669 16.0956 6.66669 16.2558V16.6428C6.66669 16.7965 6.6695 17.7256 7.19389 18.5984C7.67718 19.4028 8.68605 20.2991 11 20.2991C13.314 20.2991 14.3228 19.4028 14.8062 18.5984C15.3305 17.7256 15.3334 16.7965 15.3334 16.6428V16.2558C15.3334 16.0956 15.2035 15.9657 15.0432 15.9657H6.95685Z" fill="#540BE0"/>
</svg>
