<svg width="26" height="24" viewBox="0 0 26 24" fill="none" xmlns="http://www.w3.org/2000/svg">
<path d="M4.91671 5.03556C4.91671 3.42474 6.22255 2.1189 7.83337 2.1189C9.4442 2.1189 10.75 3.42474 10.75 5.03556C10.75 6.64639 9.4442 7.95223 7.83337 7.95223C6.22255 7.95223 4.91671 6.64639 4.91671 5.03556ZM7.83337 0.368896C5.25604 0.368896 3.16671 2.45823 3.16671 5.03556C3.16671 7.61289 5.25604 9.70223 7.83337 9.70223C10.4107 9.70223 12.5 7.61289 12.5 5.03556C12.5 2.45823 10.4107 0.368896 7.83337 0.368896ZM16.5834 6.20223C16.5834 5.23573 17.3669 4.45223 18.3334 4.45223C19.2998 4.45223 20.0834 5.23573 20.0834 6.20223C20.0834 7.16873 19.2998 7.95223 18.3334 7.95223C17.3669 7.95223 16.5834 7.16873 16.5834 6.20223ZM18.3334 2.70223C16.4003 2.70223 14.8334 4.26924 14.8334 6.20223C14.8334 8.13522 16.4003 9.70223 18.3334 9.70223C20.2664 9.70223 21.8334 8.13522 21.8334 6.20223C21.8334 4.26924 20.2664 2.70223 18.3334 2.70223ZM3.45837 12.0356C2.00863 12.0356 0.833374 13.2109 0.833374 14.6606V14.9535V14.9548L0.833386 14.9578L0.833456 14.9652L0.833782 14.9845C0.834121 14.9996 0.834739 15.0188 0.835824 15.0422C0.837994 15.0886 0.842066 15.1511 0.849684 15.2273C0.864886 15.3793 0.894426 15.5881 0.951966 15.8347C1.06665 16.3261 1.296 16.9827 1.75718 17.6415C2.71248 19.0063 4.53378 20.2022 7.83337 20.2022C9.43051 20.2022 10.6813 19.922 11.6551 19.4781C11.4813 18.9015 11.3742 18.2959 11.3429 17.6704C10.5906 18.1148 9.48149 18.4522 7.83337 18.4522C5.00796 18.4522 3.76677 17.4607 3.19082 16.6379C2.88637 16.203 2.73292 15.7659 2.65619 15.437C2.61802 15.2734 2.59971 15.1403 2.59099 15.0531C2.58665 15.0097 2.58474 14.9781 2.58392 14.9606L2.58337 14.946V14.6606C2.58337 14.1773 2.97513 13.7856 3.45837 13.7856H12.1876C12.4775 13.2294 12.8343 12.7137 13.2473 12.2492C12.9287 12.1117 12.5774 12.0356 12.2084 12.0356H3.45837ZM15.1568 13.1741C15.524 14.446 14.7606 15.7683 13.4754 16.0863L12.7938 16.2549C12.7414 16.5906 12.7142 16.935 12.7142 17.2859C12.7142 17.6531 12.744 18.013 12.8013 18.3632L13.4306 18.5148C14.7286 18.8274 15.5001 20.1633 15.1222 21.4437L14.9049 22.1802C15.4173 22.6301 16.0011 22.9955 16.6365 23.2553L17.212 22.6501C18.1319 21.6827 19.6746 21.683 20.5943 22.6507L21.1761 23.263C21.8102 23.006 22.3935 22.6441 22.906 22.1979L22.675 21.3977C22.3077 20.1257 23.0712 18.8034 24.3564 18.4855L25.0374 18.3169C25.0898 17.9812 25.117 17.6368 25.117 17.2859C25.117 16.9188 25.0872 16.5587 25.0299 16.2084L24.4011 16.0569C23.1032 15.7444 22.3317 14.4086 22.7095 13.128L22.9267 12.3921C22.4144 11.942 21.8305 11.5766 21.1951 11.3167L20.6198 11.9216C19.6999 12.8891 18.1572 12.8887 17.2375 11.921L16.6556 11.3087C16.0215 11.5656 15.4382 11.9274 14.9257 12.3735L15.1568 13.1741ZM18.9157 19.0359C17.9815 19.0359 17.2243 18.2524 17.2243 17.2859C17.2243 16.3194 17.9815 15.5359 18.9157 15.5359C19.8497 15.5359 20.6069 16.3194 20.6069 17.2859C20.6069 18.2524 19.8497 19.0359 18.9157 19.0359Z" fill="#9F9F9F"/>
</svg>
