<svg width="23" height="22" viewBox="0 0 23 22" fill="none" xmlns="http://www.w3.org/2000/svg">
<path d="M3.95835 4.67415C3.95835 3.17838 5.17092 1.96582 6.66669 1.96582C8.16246 1.96582 9.37502 3.17838 9.37502 4.67415C9.37502 6.16992 8.16246 7.38249 6.66669 7.38249C5.17092 7.38249 3.95835 6.16992 3.95835 4.67415ZM6.66669 0.34082C4.27345 0.34082 2.33335 2.28092 2.33335 4.67415C2.33335 7.06739 4.27345 9.00749 6.66669 9.00749C9.05988 9.00749 11 7.06739 11 4.67415C11 2.28092 9.05988 0.34082 6.66669 0.34082ZM14.7917 5.75749C14.7917 4.86002 15.5193 4.13249 16.4167 4.13249C17.3141 4.13249 18.0417 4.86002 18.0417 5.75749C18.0417 6.65495 17.3141 7.38249 16.4167 7.38249C15.5193 7.38249 14.7917 6.65495 14.7917 5.75749ZM16.4167 2.50749C14.6217 2.50749 13.1667 3.96257 13.1667 5.75749C13.1667 7.55241 14.6217 9.00749 16.4167 9.00749C18.2117 9.00749 19.6667 7.55241 19.6667 5.75749C19.6667 3.96257 18.2117 2.50749 16.4167 2.50749ZM2.60419 11.1742C1.25799 11.1742 0.166687 12.2655 0.166687 13.6117V13.8837V13.8849L0.166698 13.8877L0.166763 13.8945L0.167066 13.9125C0.16738 13.9265 0.167955 13.9443 0.168962 13.966C0.170977 14.0091 0.174758 14.0672 0.181832 14.1379C0.195948 14.2791 0.223378 14.4729 0.276808 14.7019C0.383299 15.1582 0.596272 15.7679 1.0245 16.3797C1.91157 17.647 3.60278 18.7575 6.66669 18.7575C8.14974 18.7575 9.31121 18.4973 10.2155 18.0851C10.0541 17.5497 9.9546 16.9873 9.92557 16.4065C9.22693 16.8192 8.19708 17.1325 6.66669 17.1325C4.04309 17.1325 2.89056 16.2118 2.35575 15.4478C2.07304 15.0439 1.93055 14.638 1.8593 14.3326C1.82386 14.1807 1.80685 14.0571 1.79876 13.9762C1.79473 13.9359 1.79295 13.9065 1.7922 13.8903L1.79169 13.8767V13.6117C1.79169 13.1629 2.15546 12.7992 2.60419 12.7992H10.7099C10.9791 12.2827 11.3104 11.8039 11.6939 11.3725C11.398 11.2449 11.0718 11.1742 10.7292 11.1742H2.60419ZM13.467 12.2314C13.808 13.4124 13.0991 14.6403 11.9057 14.9356L11.2728 15.0921C11.2242 15.4038 11.1989 15.7236 11.1989 16.0495C11.1989 16.3904 11.2265 16.7246 11.2797 17.0498L11.8641 17.1906C13.0694 17.4809 13.7858 18.7213 13.4349 19.9103L13.2331 20.5942C13.7089 21.0119 14.251 21.3512 14.841 21.5925L15.3754 21.0305C16.2296 20.1322 17.6621 20.1325 18.5161 21.0311L19.0563 21.5996C19.6451 21.361 20.1868 21.0249 20.6627 20.6106L20.4482 19.8676C20.1072 18.6864 20.8161 17.4586 22.0095 17.1634L22.6418 17.0068C22.6905 16.6951 22.7157 16.3753 22.7157 16.0495C22.7157 15.7086 22.6881 15.3742 22.6349 15.0489L22.051 14.9083C20.8458 14.6181 20.1294 13.3777 20.4803 12.1886L20.6819 11.5052C20.2062 11.0873 19.664 10.748 19.074 10.5066L18.5398 11.0683C17.6856 11.9667 16.2531 11.9664 15.3991 11.0678L14.8587 10.4992C14.27 10.7378 13.7283 11.0737 13.2524 11.488L13.467 12.2314ZM16.9574 17.6745C16.09 17.6745 15.3869 16.9469 15.3869 16.0495C15.3869 15.152 16.09 14.4245 16.9574 14.4245C17.8247 14.4245 18.5278 15.152 18.5278 16.0495C18.5278 16.9469 17.8247 17.6745 16.9574 17.6745Z" fill="#540BE0"/>
</svg>
