<svg width="24" height="24" viewBox="0 0 24 24" fill="none" xmlns="http://www.w3.org/2000/svg">
<path d="M6.50012 1.95224C5.53355 1.95224 4.75004 2.73577 4.75004 3.70224C4.75004 4.66871 5.53355 5.45224 6.50012 5.45224C7.46669 5.45224 8.2502 4.66871 8.2502 3.70224C8.2502 2.73577 7.46669 1.95224 6.50012 1.95224ZM3.00004 3.70224C3.00004 1.76921 4.56711 0.20224 6.50012 0.20224C8.43314 0.20224 10.0002 1.76921 10.0002 3.70224C10.0002 5.63527 8.43314 7.20224 6.50012 7.20224C4.56711 7.20224 3.00004 5.63527 3.00004 3.70224ZM2.14585 8.36891C1.00678 8.36891 0.0833741 9.29231 0.0833741 10.4313V10.8506C0.0833624 11.0937 0.0833041 12.4942 0.901044 13.8554C1.53899 14.9172 2.62269 15.8707 4.37119 16.298C4.61132 15.6574 5.04914 15.1135 5.61036 14.7403C3.73918 14.5401 2.85497 13.7094 2.40113 12.9541C1.83641 12.0142 1.83337 11.0136 1.83337 10.8481V10.4313C1.83337 10.2588 1.97328 10.1189 2.14585 10.1189H7.11948C7.19818 9.48777 7.40291 8.89577 7.7077 8.36891H2.14585ZM15.7925 8.36891C16.0974 8.89577 16.302 9.48777 16.3808 10.1189H21.3543C21.5268 10.1189 21.6667 10.2588 21.6667 10.4313V10.8481C21.6667 11.0136 21.6637 12.0142 21.099 12.9541C20.6452 13.7094 19.7608 14.5401 17.8897 14.7403C18.4509 15.1135 18.8888 15.6574 19.1289 16.298C20.8773 15.8707 21.9611 14.9172 22.599 13.8554C23.4168 12.4942 23.4167 11.0937 23.4167 10.8506V10.4313C23.4167 9.29231 22.4933 8.36891 21.3543 8.36891H15.7925ZM15.25 3.70224C15.25 2.73577 16.0336 1.95224 17.0002 1.95224C17.9667 1.95224 18.7502 2.73577 18.7502 3.70224C18.7502 4.66871 17.9667 5.45224 17.0002 5.45224C16.0336 5.45224 15.25 4.66871 15.25 3.70224ZM17.0002 0.20224C15.0671 0.20224 13.5 1.76921 13.5 3.70224C13.5 5.63527 15.0671 7.20224 17.0002 7.20224C18.9331 7.20224 20.5002 5.63527 20.5002 3.70224C20.5002 1.76921 18.9331 0.20224 17.0002 0.20224ZM11.7502 8.95224C10.7836 8.95224 10 9.73577 10 10.7022C10 11.6687 10.7836 12.4522 11.7502 12.4522C12.7167 12.4522 13.5002 11.6687 13.5002 10.7022C13.5002 9.73577 12.7167 8.95224 11.7502 8.95224ZM8.25004 10.7022C8.25004 8.76921 9.81711 7.20224 11.7502 7.20224C13.6831 7.20224 15.2502 8.76921 15.2502 10.7022C15.2502 12.6353 13.6831 14.2022 11.7502 14.2022C9.81711 14.2022 8.25004 12.6353 8.25004 10.7022ZM5.33337 17.4313C5.33337 16.2923 6.25678 15.3689 7.39585 15.3689H16.1043C17.2433 15.3689 18.1667 16.2923 18.1667 17.4313V17.8506C18.1667 18.0937 18.1668 19.4942 17.349 20.8554C16.4841 22.2951 14.7997 23.5356 11.75 23.5356C8.70034 23.5356 7.01599 22.2951 6.15103 20.8554C5.3333 19.4942 5.33336 18.0937 5.33337 17.8506V17.4313ZM7.39585 17.1189C7.22328 17.1189 7.08337 17.2588 7.08337 17.4313V17.8481C7.08337 18.0136 7.08641 19.0142 7.65113 19.9541C8.17159 20.8204 9.25808 21.7856 11.75 21.7856C14.242 21.7856 15.3284 20.8204 15.849 19.9541C16.4137 19.0142 16.4167 18.0136 16.4167 17.8481V17.4313C16.4167 17.2588 16.2768 17.1189 16.1043 17.1189H7.39585Z" fill="#9F9F9F"/>
</svg>
