<svg width="28" height="22" viewBox="0 0 28 22" fill="none" xmlns="http://www.w3.org/2000/svg">
<path d="M15.1484 13.1636C16.494 13.1636 17.5847 14.2543 17.5847 15.5999V16.2233C17.5847 17.1921 17.2385 18.129 16.6085 18.865C14.9084 20.8513 12.3222 21.8315 8.91482 21.8315C5.50676 21.8315 2.92192 20.851 1.22509 18.8638C0.597006 18.1283 0.251953 17.1929 0.251953 16.2257V15.5999C0.251953 14.2543 1.34271 13.1636 2.68823 13.1636H15.1484ZM8.91482 0.168701C11.9063 0.168701 14.3315 2.59383 14.3315 5.58537C14.3315 8.57692 11.9063 11.0021 8.91482 11.0021C5.92324 11.0021 3.49811 8.57692 3.49811 5.58537C3.49811 2.59383 5.92324 0.168701 8.91482 0.168701ZM8.91482 1.7937C6.82073 1.7937 5.12311 3.4913 5.12311 5.58537C5.12311 7.67945 6.82073 9.37706 8.91482 9.37706C11.0089 9.37706 12.7065 7.67945 12.7065 5.58537C12.7065 3.4913 11.0089 1.7937 8.91482 1.7937Z" fill="#540BE0"/>
<path d="M19.0806 6.00012C19.0806 4.89555 19.976 4.00012 21.0806 4.00012C22.1851 4.00012 23.0806 4.89555 23.0806 6.00012C23.0806 7.10469 22.1851 8.00012 21.0806 8.00012C19.976 8.00012 19.0806 7.10469 19.0806 6.00012ZM21.0806 2.00012C18.8714 2.00012 17.0806 3.79099 17.0806 6.00012C17.0806 8.20932 18.8714 10.0001 21.0806 10.0001C23.2898 10.0001 25.0806 8.20932 25.0806 6.00012C25.0806 3.79099 23.2898 2.00012 21.0806 2.00012ZM17.4118 19.3837C18.3482 19.7644 19.5495 20.0001 21.0819 20.0001C24.125 20.0001 25.8628 19.0704 26.8111 17.9229C27.2712 17.366 27.5054 16.8037 27.6242 16.3728C27.6834 16.1576 27.7144 15.9735 27.7306 15.8361C27.7387 15.7673 27.7432 15.7096 27.7456 15.6651C27.7468 15.6428 27.7476 15.6237 27.748 15.608L27.7484 15.5872L27.7486 15.5787V15.5749V15.5716C27.7486 13.9673 26.448 12.6668 24.8438 12.6668H17.32C17.2834 12.6668 17.247 12.6675 17.2108 12.6688C17.736 13.2169 18.1188 13.9028 18.2992 14.6668H24.8438C25.3392 14.6668 25.7416 15.0649 25.7484 15.5587C25.748 15.5663 25.7468 15.5808 25.7444 15.6016C25.7384 15.6517 25.7252 15.7355 25.6959 15.8417C25.6375 16.0537 25.5175 16.3485 25.2694 16.6488C24.801 17.2156 23.7055 18.0001 21.0819 18.0001C19.7751 18.0001 18.8475 17.8055 18.1875 17.5401C18.0447 18.0736 17.8075 18.7172 17.4118 19.3837Z" fill="#540BE0"/>
</svg>
