<svg width="20" height="22" viewBox="0 0 20 22" fill="none" xmlns="http://www.w3.org/2000/svg">
<path d="M10 0.621414C14.3874 0.621414 17.9698 4.08239 18.1205 8.47456L18.125 8.74641V13.1848L19.62 16.6038C19.6949 16.7749 19.7334 16.9596 19.7334 17.1464C19.7334 17.8942 19.1272 18.5005 18.3793 18.5005L13.25 18.5022C13.25 20.297 11.795 21.7522 10 21.7522C8.26917 21.7522 6.85439 20.3991 6.75553 18.6931L6.74953 18.4997L1.63113 18.5005C1.44551 18.5005 1.26188 18.4623 1.09162 18.3884C0.405652 18.0904 0.0911058 17.2928 0.389066 16.6069L1.87502 13.1858V8.74631C1.87567 4.24528 5.50645 0.621414 10 0.621414ZM11.6246 18.4997L8.37501 18.5022C8.37501 19.3996 9.10258 20.1272 10 20.1272C10.8447 20.1272 11.5389 19.4827 11.6175 18.6586L11.6246 18.4997ZM10 2.24641C6.40318 2.24641 3.50054 5.14353 3.50002 8.74641V13.5235L2.04404 16.8755H17.9652L16.5 13.5246L16.5001 8.76035L16.4961 8.51638C16.3758 5.01344 13.5117 2.24641 10 2.24641Z" fill="#9F9F9F"/>
</svg>
