<svg width="20" height="26" viewBox="0 0 20 26" fill="none" xmlns="http://www.w3.org/2000/svg">
<path d="M17.1931 15.9834C18.7457 15.9834 20.0042 17.2419 20.0042 18.7946V19.5138C20.0042 20.6317 19.6047 21.7127 18.8779 22.5619C16.9161 24.8538 13.9321 25.9848 10.0005 25.9848C6.06812 25.9848 3.08561 24.8534 1.12773 22.5606C0.403021 21.7119 0.00488281 20.6326 0.00488281 19.5166V18.7946C0.00488281 17.2419 1.26345 15.9834 2.81597 15.9834H17.1931ZM10.0005 0.989288C13.4522 0.989288 16.2505 3.78751 16.2505 7.23929C16.2505 10.6911 13.4522 13.4893 10.0005 13.4893C6.54867 13.4893 3.75045 10.6911 3.75045 7.23929C3.75045 3.78751 6.54867 0.989288 10.0005 0.989288ZM10.0005 2.86429C7.58425 2.86429 5.62544 4.82305 5.62544 7.23929C5.62544 9.65554 7.58425 11.6143 10.0005 11.6143C12.4167 11.6143 14.3755 9.65554 14.3755 7.23929C14.3755 4.82305 12.4167 2.86429 10.0005 2.86429Z" fill="#D8C8F8"/>
</svg>
