<svg width="20" height="22" viewBox="0 0 20 22" fill="none" xmlns="http://www.w3.org/2000/svg">
<path d="M10.0001 0.253296C14.3875 0.253296 17.9699 3.71428 18.1206 8.10644L18.1251 8.3783V12.8167L19.6201 16.2357C19.695 16.4068 19.7336 16.5915 19.7336 16.7783C19.7336 17.5261 19.1273 18.1324 18.3794 18.1324L13.2501 18.134C13.2501 19.9289 11.7951 21.384 10.0001 21.384C8.26929 21.384 6.85451 20.031 6.75566 18.3249L6.74965 18.1316L1.63125 18.1324C1.44563 18.1324 1.262 18.0942 1.09174 18.0203C0.405774 17.7223 0.0912279 16.9247 0.389188 16.2388L1.87514 12.8177V8.37819C1.87579 3.87717 5.50657 0.253296 10.0001 0.253296ZM11.6247 18.1316L8.37513 18.134C8.37513 19.0315 9.1027 19.759 10.0001 19.759C10.8448 19.759 11.539 19.1146 11.6177 18.2905L11.6247 18.1316ZM10.0001 1.8783C6.4033 1.8783 3.50066 4.77541 3.50014 8.3783V13.1554L2.04416 16.5074H17.9653L16.5001 13.1565L16.5002 8.39223L16.4962 8.14826C16.3759 4.64532 13.5119 1.8783 10.0001 1.8783Z" fill="#540BE0"/>
</svg>
