<svg width="23" height="20" viewBox="0 0 23 20" fill="none" xmlns="http://www.w3.org/2000/svg">
<path d="M1.61541 17.5908H22.024C22.4727 17.5908 22.8365 17.9546 22.8365 18.4033C22.8365 18.8146 22.5308 19.1546 22.1343 19.2084L22.024 19.2158H1.61541C1.16669 19.2158 0.802914 18.852 0.802914 18.4033C0.802914 17.9919 1.10859 17.652 1.50516 17.5981L1.61541 17.5908ZM9.56046 10.0074H22.024C22.4727 10.0074 22.8365 10.3712 22.8365 10.8199C22.8365 11.2313 22.5308 11.5712 22.1343 11.6251L22.024 11.6324H9.56046C9.11173 11.6324 8.74795 11.2687 8.74795 10.8199C8.74795 10.4086 9.05363 10.0687 9.4502 10.0148L9.56046 10.0074ZM5.76856 0.257446C6.81559 0.257446 7.66439 1.10624 7.66439 2.15328V11.9053C7.66439 12.9523 6.81559 13.8011 5.76856 13.8011H3.06252C2.01548 13.8011 1.16669 12.9523 1.16669 11.9053V2.15328C1.16669 1.10624 2.01548 0.257446 3.06252 0.257446H5.76856ZM9.56046 2.42411H22.024C22.4727 2.42411 22.8365 2.78789 22.8365 3.23661C22.8365 3.64795 22.5308 3.98789 22.1343 4.04169L22.024 4.04911H9.56046C9.11173 4.04911 8.74795 3.68534 8.74795 3.23661C8.74795 2.82527 9.05363 2.48533 9.4502 2.43153L9.56046 2.42411Z" fill="#540BE0"/>
</svg>
