<svg width="23" height="20" viewBox="0 0 23 20" fill="none" xmlns="http://www.w3.org/2000/svg">
<path d="M1.61541 17.5906H22.024C22.4727 17.5906 22.8365 17.9544 22.8365 18.4031C22.8365 18.8144 22.5308 19.1544 22.1343 19.2082L22.024 19.2156H1.61541C1.16669 19.2156 0.802914 18.8518 0.802914 18.4031C0.802914 17.9918 1.10859 17.6518 1.50516 17.598L1.61541 17.5906ZM9.56046 10.0073H22.024C22.4727 10.0073 22.8365 10.371 22.8365 10.8198C22.8365 11.2311 22.5308 11.5711 22.1343 11.6249L22.024 11.6323H9.56046C9.11173 11.6323 8.74795 11.2685 8.74795 10.8198C8.74795 10.4084 9.05363 10.0685 9.4502 10.0146L9.56046 10.0073ZM5.76856 0.257263C6.81559 0.257263 7.66439 1.10606 7.66439 2.1531V11.9051C7.66439 12.9521 6.81559 13.8009 5.76856 13.8009H3.06252C2.01548 13.8009 1.16669 12.9521 1.16669 11.9051V2.1531C1.16669 1.10606 2.01548 0.257263 3.06252 0.257263H5.76856ZM9.56046 2.42393H22.024C22.4727 2.42393 22.8365 2.7877 22.8365 3.23643C22.8365 3.64777 22.5308 3.98771 22.1343 4.04151L22.024 4.04893H9.56046C9.11173 4.04893 8.74795 3.68516 8.74795 3.23643C8.74795 2.82509 9.05363 2.48515 9.4502 2.43135L9.56046 2.42393Z" fill="#9F9F9F"/>
</svg>
