<svg width="28" height="29" viewBox="0 0 28 29" fill="none" xmlns="http://www.w3.org/2000/svg">
<path d="M20.6139 7.61395H7.38615C3.58303 7.61395 0.5 10.697 0.5 14.5001C0.5 18.3032 3.58303 21.3863 7.38615 21.3863H20.6139C24.417 21.3863 27.5 18.3032 27.5 14.5001C27.5 10.697 24.417 7.61395 20.6139 7.61395Z" stroke="#240151" stroke-linecap="round" stroke-linejoin="round"/>
<path d="M17.9105 17.8287C20.0952 17.8287 21.8663 16.0576 21.8663 13.8728C21.8663 11.688 20.0952 9.91693 17.9105 9.91693C15.7257 9.91693 13.9546 11.688 13.9546 13.8728C13.9546 16.0576 15.7257 17.8287 17.9105 17.8287Z" stroke="#240151" stroke-linecap="round" stroke-linejoin="round"/>
<path d="M23.7601 20.3965L20.5645 17.0027" stroke="#240151" stroke-linecap="round" stroke-linejoin="round"/>
<path d="M10.3213 15.9074C11.1009 15.9461 11.7644 15.3435 11.8031 14.5639C11.8418 13.7844 11.2391 13.1209 10.4596 13.0822C9.68 13.0435 9.01654 13.6461 8.97784 14.4257C8.93914 15.2053 9.54178 15.8687 10.3213 15.9074Z" stroke="#240151" stroke-linecap="round" stroke-linejoin="round"/>
</svg>
