<svg width="22" height="28" viewBox="0 0 22 28" fill="none" xmlns="http://www.w3.org/2000/svg">
<path d="M18.6725 16.667C20.3286 16.667 21.671 18.0094 21.671 19.6655V20.4327C21.671 21.6251 21.2449 22.7782 20.4696 23.684C18.377 26.1287 15.1941 27.3351 11.0004 27.3351C6.80583 27.3351 3.62449 26.1283 1.53609 23.6826C0.763059 22.7774 0.338379 21.626 0.338379 20.4356V19.6655C0.338379 18.0094 1.68085 16.667 3.33687 16.667H18.6725ZM11.0004 0.673218C14.6822 0.673218 17.667 3.65799 17.667 7.33988C17.667 11.0218 14.6822 14.0066 11.0004 14.0066C7.31842 14.0066 4.33365 11.0218 4.33365 7.33988C4.33365 3.65799 7.31842 0.673218 11.0004 0.673218ZM11.0004 2.67322C8.42303 2.67322 6.33364 4.76256 6.33364 7.33988C6.33364 9.91722 8.42303 12.0066 11.0004 12.0066C13.5777 12.0066 15.667 9.91722 15.667 7.33988C15.667 4.76256 13.5777 2.67322 11.0004 2.67322Z" fill="#540BE0"/>
</svg>
