<svg width="26" height="26" viewBox="0 0 26 26" fill="none" xmlns="http://www.w3.org/2000/svg">
<path d="M23.625 12.64C23.625 6.77199 18.868 2.01501 13 2.01501C7.13198 2.01501 2.375 6.77199 2.375 12.64C2.375 18.508 7.13198 23.265 13 23.265C18.868 23.265 23.625 18.508 23.625 12.64ZM25.5 12.64C25.5 19.5435 19.9035 25.14 13 25.14C6.09644 25.14 0.5 19.5435 0.5 12.64C0.5 5.73645 6.09644 0.140015 13 0.140015C19.9035 0.140015 25.5 5.73645 25.5 12.64ZM6.75 14.2025C7.61295 14.2025 8.3125 13.503 8.3125 12.64C8.3125 11.777 7.61295 11.0775 6.75 11.0775C5.88705 11.0775 5.1875 11.777 5.1875 12.64C5.1875 13.503 5.88705 14.2025 6.75 14.2025ZM13 14.2025C13.863 14.2025 14.5625 13.503 14.5625 12.64C14.5625 11.777 13.863 11.0775 13 11.0775C12.137 11.0775 11.4375 11.777 11.4375 12.64C11.4375 13.503 12.137 14.2025 13 14.2025ZM19.25 14.2025C20.113 14.2025 20.8125 13.503 20.8125 12.64C20.8125 11.777 20.113 11.0775 19.25 11.0775C18.387 11.0775 17.6875 11.777 17.6875 12.64C17.6875 13.503 18.387 14.2025 19.25 14.2025Z" fill="#9F9F9F"/>
</svg>
