<svg width="25" height="34" viewBox="0 0 25 34" fill="none" xmlns="http://www.w3.org/2000/svg">
<path d="M22.9163 2.84936C23.6067 2.84956 24.1667 2.29008 24.1667 1.59973C24.1667 0.909377 23.6073 0.34956 22.917 0.34936L1.25037 0.343094C0.56 0.342894 0 0.902377 0 1.59273C0 2.28309 0.559284 2.84289 1.24963 2.84309L22.9163 2.84936ZM11.9137 33.663L12.0833 33.6745C12.7162 33.6745 13.2392 33.2042 13.322 32.594L13.3333 32.4245L13.3317 9.61613L19.5347 15.8167C19.9785 16.2603 20.673 16.3007 21.1623 15.9375L21.3025 15.8165C21.7462 15.3727 21.7865 14.6782 21.4233 14.1888L21.3023 14.0487L12.9728 5.72103C12.5293 5.27754 11.8353 5.23704 11.346 5.59964L11.2058 5.72053L2.86672 14.0482C2.37823 14.536 2.37768 15.3275 2.86552 15.816C3.30898 16.26 4.0034 16.3008 4.493 15.9382L4.63328 15.8172L10.8317 9.6278L10.8333 32.4245C10.8333 33.0573 11.3037 33.5803 11.9137 33.663Z" fill="#9F9F9F"/>
</svg>
