<svg width="20" height="12" viewBox="0 0 20 12" fill="none" xmlns="http://www.w3.org/2000/svg">
<path d="M9.9999 3.50459C12.209 3.50459 13.9999 5.29547 13.9999 7.50457C13.9999 9.71377 12.209 11.5046 9.9999 11.5046C7.79073 11.5046 5.99987 9.71377 5.99987 7.50457C5.99987 5.29547 7.79073 3.50459 9.9999 3.50459ZM9.9999 5.00457C8.6192 5.00457 7.49987 6.12387 7.49987 7.50457C7.49987 8.88527 8.6192 10.0046 9.9999 10.0046C11.3806 10.0046 12.4999 8.88527 12.4999 7.50457C12.4999 6.12387 11.3806 5.00457 9.9999 5.00457ZM9.9999 -3.05176e-05C14.6134 -3.05176e-05 18.596 3.14998 19.701 7.56437C19.8016 7.96617 19.5574 8.37347 19.1556 8.47407C18.7537 8.57457 18.3465 8.33047 18.2459 7.92857C17.307 4.17793 13.9212 1.49997 9.9999 1.49997C6.07681 1.49997 2.68997 4.18023 1.75273 7.93317C1.65237 8.33497 1.24523 8.57937 0.843357 8.47907C0.441487 8.37867 0.197067 7.97157 0.297427 7.56967C1.40052 3.15269 5.38436 -3.05176e-05 9.9999 -3.05176e-05Z" fill="#240151"/>
</svg>
