<svg width="64" height="64" viewBox="0 0 64 64" fill="none" xmlns="http://www.w3.org/2000/svg">
<path d="M32 0C49.673 0 64 14.3269 64 32C64 49.673 49.673 64 32 64C14.3269 64 0 49.673 0 32C0 14.3269 14.3269 0 32 0ZM32 4.8C16.9779 4.8 4.8 16.9779 4.8 32C4.8 47.0221 16.9779 59.2 32 59.2C47.0221 59.2 59.2 47.0221 59.2 32C59.2 16.9779 47.0221 4.8 32 4.8Z" fill="#FFD37E"/>
<path d="M29.4219 35.4375V18.25C29.4219 16.8262 30.5762 15.6719 32 15.6719C33.4238 15.6719 34.5781 16.8262 34.5781 18.25V35.4375C34.5781 36.8613 33.4238 38.0156 32 38.0156C30.5762 38.0156 29.4219 36.8613 29.4219 35.4375ZM35.4375 44.8906C35.4375 46.7892 33.8985 48.3281 32 48.3281C30.1015 48.3281 28.5625 46.7892 28.5625 44.8906C28.5625 42.9921 30.1015 41.4531 32 41.4531C33.8985 41.4531 35.4375 42.9921 35.4375 44.8906Z" fill="#FFD37E"/>
</svg>
