<svg width="22" height="24" viewBox="0 0 22 24" fill="none" xmlns="http://www.w3.org/2000/svg">
<path d="M11.0001 0.328766C15.725 0.328766 19.5829 4.05597 19.7452 8.786L19.7501 9.07877V13.8586L21.3601 17.5406C21.4407 17.7248 21.4823 17.9237 21.4823 18.1249C21.4823 18.9302 20.8294 19.5832 20.0239 19.5832L14.5001 19.585C14.5001 21.5179 12.9332 23.085 11.0001 23.085C9.13615 23.085 7.61254 21.6278 7.50608 19.7905L7.49962 19.5823L1.98749 19.5832C1.78759 19.5832 1.58983 19.542 1.40648 19.4625C0.667745 19.1415 0.329003 18.2826 0.649883 17.5439L2.25014 13.8597V9.07865C2.25084 4.23139 6.16091 0.328766 11.0001 0.328766ZM12.7497 19.5823L9.25013 19.585C9.25013 20.5514 10.0337 21.335 11.0001 21.335C11.9098 21.335 12.6574 20.6409 12.7421 19.7534L12.7497 19.5823ZM11.0001 2.07877C7.12662 2.07877 4.0007 5.19874 4.00014 9.07877V14.2233L2.43216 17.8332H19.578L18.0001 14.2245L18.0002 9.09377L17.9959 8.83104C17.8663 5.05864 14.782 2.07877 11.0001 2.07877Z" fill="white"/>
</svg>
